<svg width="139" height="168" viewBox="0 0 139 168" fill="none" xmlns="http://www.w3.org/2000/svg">
<rect x="19.1829" y="76.9368" width="102.066" height="57.0844" rx="10" fill="#F4BB5F"/>
<path d="M19.1829 61.9861H121.249V110.916H19.1829V61.9861Z" fill="#F4BB5F"/>
<path d="M2.40088 70.3586C-0.13915 72.8954 -0.13915 77.0083 2.40088 79.5451C4.9409 82.0819 9.0591 82.0819 11.5991 79.5451L2.40088 70.3586ZM11.5991 79.5451L77.656 13.5725L68.4577 4.38594L2.40088 70.3586L11.5991 79.5451Z" fill="#F4BB5F"/>
<path d="M127.401 79.5507C129.941 82.0875 134.059 82.0875 136.599 79.5507C139.139 77.0139 139.139 72.901 136.599 70.3642L127.401 79.5507ZM61.3473 13.5813L127.401 79.5507L136.599 70.3642L70.5455 4.39474L61.3473 13.5813Z" fill="#F4BB5F"/>
<rect width="9.62923" height="9.62923" transform="matrix(0.707557 -0.706656 0.707557 0.706656 62.6603 6.80455)" fill="#F4BB5F"/>
<rect width="65.7864" height="65.7864" transform="matrix(0.707557 -0.706656 0.707557 0.706656 22.3525 62.1745)" fill="#F4BB5F"/>
<path d="M82.8412 71.9214C80.8483 71.9214 78.8553 71.9214 76.8918 71.8327C76.4447 71.8327 76.0137 71.7455 75.568 71.7004C75.7313 71.273 75.8652 70.8456 76.0578 70.4342C77.1889 68.1053 78.3199 65.7778 79.4789 63.4794C80.5203 61.431 79.0627 60.6649 77.6051 60.0615C77.4595 59.9801 77.3051 59.9162 77.1433 59.8711C76.9815 59.826 76.8168 59.8013 76.6491 59.797C76.4814 59.7911 76.3152 59.8057 76.1505 59.8406C75.9858 59.8755 75.8284 59.9278 75.6769 60.0005C75.5254 60.0732 75.3857 60.1619 75.2562 60.268C75.1268 60.3741 75.0121 60.4948 74.9121 60.6271C74.8121 60.7608 74.7282 60.9047 74.6635 61.0574C74.5988 61.2115 74.5532 61.3699 74.5267 61.5342C73.9016 63.5535 73.2177 65.5713 72.5176 67.5746C72.3999 67.8988 72.0425 68.1503 71.8042 68.4295C71.5924 68.1925 71.3998 67.9424 71.2247 67.6779C68.9626 63.5084 65.2444 60.8568 61.3174 58.3519C60.0833 57.5858 58.8184 57.7922 58.3419 59.1326C57.5991 61.0414 57.0682 63.0054 56.7505 65.0262C56.5872 66.0583 56.5872 66.7213 55.2635 66.8972C49.5362 67.6779 46.6504 71.1698 45.0002 76.5924C41.9806 86.7441 44.4942 95.9668 48.9272 105.057C49.7156 106.605 50.8158 108.004 51.6629 109.625C54.534 114.973 61.5409 115.519 65.468 112.999C65.8401 112.753 66.2416 112.569 66.6711 112.445C67.1021 112.322 67.5404 112.266 67.9875 112.278C68.4361 112.29 68.87 112.37 69.2936 112.515C69.7157 112.66 70.1069 112.867 70.4658 113.131C71.7101 113.764 73.0088 114.255 74.362 114.606C74.7135 114.722 75.0709 114.812 75.4342 114.876C75.7975 114.94 76.1652 114.978 76.5344 114.989C76.9035 115.001 77.2712 114.985 77.639 114.943C78.0067 114.901 78.3685 114.832 78.7244 114.738C79.0818 114.645 79.4304 114.524 79.7702 114.38C80.1099 114.235 80.4364 114.066 80.7512 113.874C81.0659 113.682 81.3645 113.469 81.6469 113.233C81.9308 112.998 82.1941 112.742 82.4397 112.469C87.4669 107.194 92.1529 101.668 94.9945 94.8765C97.6273 88.586 97.6273 82.4409 92.7633 77.0634C92.1029 76.3859 91.391 75.7637 90.6306 75.1982C89.8688 74.6341 89.0657 74.1326 88.2229 73.6965C87.3801 73.2589 86.5065 72.8911 85.6049 72.5945C84.7018 72.2965 83.7811 72.0726 82.8412 71.9214ZM47.7521 81.7198C48.4948 79.465 49.1346 77.1521 50.0127 74.9423C50.2142 74.3914 50.4848 73.8767 50.8231 73.397C51.1629 72.9158 51.5585 72.4884 52.0115 72.1119C52.4645 71.7353 52.9602 71.4242 53.4956 71.1771C54.0324 70.9299 54.5913 70.7555 55.1738 70.6552C60.3363 69.5939 63.8913 72.2456 67.0741 75.7521C67.2653 75.9992 67.4786 76.226 67.7124 76.4325C67.9478 76.6389 68.2008 76.8206 68.4699 76.9791C68.7405 77.1375 69.0229 77.2698 69.3186 77.3745C69.6142 77.4792 69.9172 77.5562 70.2275 77.6042C70.5379 77.6507 70.8497 77.6696 71.163 77.658C71.4763 77.6464 71.7866 77.6057 72.0925 77.5344C72.3984 77.4646 72.6941 77.3672 72.9809 77.2408C73.2677 77.1143 73.5398 76.9616 73.7972 76.7843C79.1083 73.4101 87.9435 75.7085 90.9777 81.2037C91.3852 81.9699 91.7073 82.7694 91.947 83.6025C92.1868 84.4355 92.3368 85.283 92.3985 86.1466C92.4589 87.0101 92.4309 87.8707 92.3118 88.7285C92.1926 89.5862 91.9867 90.4221 91.6926 91.2377C90.6321 94.2281 89.2451 97.06 87.5287 99.7335C85.8137 102.408 83.8149 104.857 81.5322 107.077C76.1623 112.764 77.3227 112.72 70.2275 109.212C69.7466 108.939 69.2362 108.738 68.6964 108.609C68.1566 108.478 67.6095 108.426 67.055 108.45C66.5005 108.476 65.9607 108.577 65.4356 108.754C64.9105 108.932 64.4193 109.177 63.9648 109.493C63.3412 109.885 62.6867 110.22 62.0013 110.494C61.7336 110.628 61.4571 110.737 61.1688 110.82C60.8805 110.904 60.5878 110.96 60.2893 110.99C59.9907 111.019 59.6921 111.022 59.3935 110.996C59.095 110.971 58.8008 110.919 58.5125 110.84C58.2228 110.76 57.9433 110.656 57.6742 110.526C57.405 110.395 57.1491 110.243 56.9079 110.065C56.6681 109.888 56.4446 109.692 56.2416 109.474C56.0371 109.256 55.8548 109.022 55.6944 108.77C54.4957 107.008 53.4044 105.181 52.4219 103.289C51.5659 101.632 50.8216 99.9254 50.1921 98.1722C49.5612 96.4174 49.0478 94.6293 48.6537 92.8092C48.2595 90.9876 47.9874 89.15 47.8359 87.2936C47.6844 85.4371 47.6565 83.5792 47.7521 81.7198ZM59.6509 62.8906C60.0377 62.6391 60.707 61.8729 61.2276 61.9616C63.6236 62.3294 68.9626 68.5036 68.9626 70.8165C68.9244 71.1829 68.8258 71.5303 68.6655 71.8633C68.3831 71.7004 68.086 71.5681 67.833 71.3908C65.9578 70.1536 64.2634 68.444 62.2101 67.7811C59.6818 66.9859 59.7554 65.2762 59.6965 62.8906H59.6509Z" fill="black"/>
<path d="M37.1624 140.182C37.1624 139.814 37.1704 139.542 37.1864 139.366C37.2184 139.174 37.2984 138.958 37.4264 138.718C37.6504 138.286 38.2744 138.07 39.2984 138.07C40.4184 138.07 41.0824 138.366 41.2904 138.958C41.3704 139.23 41.4104 139.646 41.4104 140.206V153.55C41.4104 153.934 41.3944 154.214 41.3624 154.39C41.3464 154.566 41.2744 154.774 41.1464 155.014C40.9224 155.446 40.2984 155.662 39.2744 155.662C38.1544 155.662 37.4984 155.358 37.3064 154.75C37.2104 154.494 37.1624 154.086 37.1624 153.526V140.182ZM50.3584 143.014C51.9584 143.014 53.2864 143.63 54.3424 144.862C55.4144 146.078 55.9504 147.566 55.9504 149.326V153.55C55.9504 153.918 55.9344 154.198 55.9024 154.39C55.8864 154.566 55.8224 154.766 55.7104 154.99C55.4864 155.422 54.8624 155.638 53.8384 155.638C52.7024 155.638 52.0464 155.342 51.8704 154.75C51.7744 154.478 51.7264 154.07 51.7264 153.526V149.302C51.7264 148.646 51.5344 148.134 51.1504 147.766C50.7824 147.398 50.2784 147.214 49.6384 147.214C49.0144 147.214 48.5024 147.406 48.1024 147.79C47.7184 148.174 47.5264 148.678 47.5264 149.302V153.55C47.5264 153.918 47.5104 154.198 47.4784 154.39C47.4624 154.566 47.3904 154.766 47.2624 154.99C47.0544 155.422 46.4384 155.638 45.4144 155.638C44.4064 155.638 43.7904 155.422 43.5664 154.99C43.4544 154.75 43.3824 154.542 43.3504 154.366C43.3344 154.174 43.3264 153.894 43.3264 153.526V145.03C43.3264 144.678 43.3344 144.414 43.3504 144.238C43.3824 144.046 43.4624 143.838 43.5904 143.614C43.8144 143.214 44.4304 143.014 45.4384 143.014C46.4144 143.014 47.0144 143.198 47.2384 143.566C47.3984 143.838 47.4784 144.166 47.4784 144.55C47.5424 144.438 47.6864 144.278 47.9104 144.07C48.1344 143.862 48.3504 143.694 48.5584 143.566C49.1024 143.198 49.7024 143.014 50.3584 143.014ZM61.6011 138.574C61.8731 138.846 62.0091 139.31 62.0091 139.966V140.35C62.0091 140.75 61.9931 141.046 61.9611 141.238C61.8491 142.646 61.4331 143.854 60.7131 144.862C59.9931 145.87 59.0811 146.374 57.9771 146.374C57.8651 146.374 57.7611 146.294 57.6651 146.134C57.5851 145.958 57.5451 145.734 57.5451 145.462C57.5451 145.19 57.5771 144.982 57.6411 144.838C57.7211 144.678 57.8011 144.59 57.8811 144.574C57.9771 144.542 58.0491 144.526 58.0971 144.526C58.1451 144.51 58.2331 144.47 58.3611 144.406C58.4891 144.326 58.6011 144.222 58.6971 144.094C58.9531 143.758 59.0971 143.238 59.1291 142.534C58.5851 142.454 58.1771 142.278 57.9051 142.006C57.6491 141.734 57.5211 141.158 57.5211 140.278C57.5211 139.638 57.6011 139.166 57.7611 138.862C57.9211 138.542 58.1611 138.334 58.4811 138.238C58.8171 138.126 59.3291 138.07 60.0171 138.07C60.7051 138.07 61.2331 138.238 61.6011 138.574ZM67.8244 151.414H75.2164C75.5844 151.414 75.8564 151.43 76.0324 151.462C76.2244 151.478 76.4404 151.55 76.6804 151.678C77.1124 151.902 77.3284 152.526 77.3284 153.55C77.3284 154.67 77.0324 155.326 76.4404 155.518C76.1684 155.614 75.7524 155.662 75.1924 155.662H65.6884C64.5684 155.662 63.9124 155.358 63.7204 154.75C63.6244 154.494 63.5764 154.086 63.5764 153.526V140.182C63.5764 139.366 63.7284 138.814 64.0324 138.526C64.3364 138.222 64.9124 138.07 65.7604 138.07H75.2164C75.5844 138.07 75.8564 138.086 76.0324 138.118C76.2244 138.134 76.4404 138.206 76.6804 138.334C77.1124 138.558 77.3284 139.182 77.3284 140.206C77.3284 141.326 77.0324 141.982 76.4404 142.174C76.1684 142.27 75.7524 142.318 75.1924 142.318H67.8244V144.742H72.5764C72.9444 144.742 73.2164 144.758 73.3924 144.79C73.5844 144.806 73.8004 144.878 74.0404 145.006C74.4724 145.23 74.6884 145.854 74.6884 146.878C74.6884 147.998 74.3844 148.654 73.7764 148.846C73.5044 148.942 73.0884 148.99 72.5284 148.99H67.8244V151.414ZM87.0891 144.358C87.1851 143.462 87.8171 143.014 88.9851 143.014C89.6091 143.014 90.0731 143.062 90.3771 143.158C90.6811 143.254 90.8891 143.422 91.0011 143.662C91.1291 143.902 91.2011 144.118 91.2171 144.31C91.2491 144.486 91.2651 144.758 91.2651 145.126V153.526C91.2651 153.894 91.2491 154.174 91.2171 154.366C91.2011 154.542 91.1371 154.75 91.0251 154.99C90.8011 155.406 90.2491 155.614 89.3691 155.614C88.5051 155.614 87.9211 155.51 87.6171 155.302C87.3291 155.078 87.1611 154.758 87.1131 154.342C86.5211 155.19 85.5291 155.614 84.1371 155.614C82.7611 155.614 81.4811 154.982 80.2971 153.718C79.1131 152.454 78.5211 150.99 78.5211 149.326C78.5211 147.646 79.1131 146.182 80.2971 144.934C81.4971 143.67 82.8091 143.038 84.2331 143.038C84.7771 143.038 85.2731 143.134 85.7211 143.326C86.1691 143.518 86.4811 143.702 86.6571 143.878C86.8331 144.038 86.9771 144.198 87.0891 144.358ZM82.7211 149.35C82.7211 149.878 82.9291 150.358 83.3451 150.79C83.7611 151.206 84.2651 151.414 84.8571 151.414C85.4491 151.414 85.9371 151.198 86.3211 150.766C86.7211 150.334 86.9211 149.862 86.9211 149.35C86.9211 148.822 86.7291 148.334 86.3451 147.886C85.9771 147.438 85.4731 147.214 84.8331 147.214C84.2091 147.214 83.6971 147.438 83.2971 147.886C82.9131 148.334 82.7211 148.822 82.7211 149.35ZM100.522 147.262L98.962 147.166V150.478C98.962 150.91 99.026 151.222 99.154 151.414C99.298 151.606 99.554 151.702 99.922 151.702C100.306 151.702 100.594 151.718 100.786 151.75C100.994 151.766 101.21 151.838 101.434 151.966C101.802 152.174 101.986 152.71 101.986 153.574C101.986 154.582 101.762 155.198 101.314 155.422C101.074 155.534 100.858 155.606 100.666 155.638C100.49 155.654 100.226 155.662 99.874 155.662C98.21 155.662 96.946 155.286 96.082 154.534C95.218 153.782 94.786 152.51 94.786 150.718V147.166C94.482 147.214 94.154 147.238 93.802 147.238C93.45 147.238 93.154 147.102 92.914 146.83C92.69 146.558 92.578 146.094 92.578 145.438C92.578 144.782 92.618 144.31 92.698 144.022C92.778 143.718 92.89 143.502 93.034 143.374C93.29 143.166 93.61 143.062 93.994 143.062L94.786 143.158V140.686C94.786 140.318 94.794 140.046 94.81 139.87C94.842 139.694 94.922 139.502 95.05 139.294C95.258 138.894 95.874 138.694 96.898 138.694C97.986 138.694 98.634 138.99 98.842 139.582C98.922 139.838 98.962 140.246 98.962 140.806V143.158C99.666 143.094 100.194 143.062 100.546 143.062C100.914 143.062 101.186 143.078 101.362 143.11C101.554 143.126 101.77 143.198 102.01 143.326C102.426 143.534 102.634 144.15 102.634 145.174C102.634 146.182 102.418 146.798 101.986 147.022C101.746 147.134 101.53 147.206 101.338 147.238C101.162 147.254 100.89 147.262 100.522 147.262Z" fill="black"/>
</svg>
